# xmcd
#
# Track frame offsets:
#	150
#	21402
#	45054
#	66372
#	86227
#	106190
#	126133
#	147908
#	169895
#	190835
#	212324
#
# Disc length: 3103 seconds
#
# Revision: 0
# Processed by: cddbd v1.5.2PL0 Copyright (c) Steve Scherf et al.
# Submitted via: audiograbber 1.83.01
#
DISCID=930c1d0b
DTITLE=King Bongo - Fiebre De Salsa and Boogaloo
DYEAR=2005
DGENRE=Salsa
TTITLE0=The Percussion
TTITLE1=Cogele El Golpe
TTITLE2=King Bongo
TTITLE3=La Loteria
TTITLE4=El Negro Bembon Maquinolandera
TTITLE5=Levantate Bailador
TTITLE6=La Rumba Va A Comenzar
TTITLE7=No Te Quedes Sin Bailar
TTITLE8=!Aja! Y Que
TTITLE9=La Rumba En El Cielo
TTITLE10=Cumbia Boogaloo
EXTD=muy bueno by felixbambam
EXTT0=
EXTT1=
EXTT2=
EXTT3=
EXTT4=
EXTT5=
EXTT6=
EXTT7=
EXTT8=
EXTT9=
EXTT10=
PLAYORDER=
